<?xml version="1.0" encoding="utf-8"?>
<!-- Generator: Adobe Illustrator 16.2.1, SVG Export Plug-In . SVG Version: 6.00 Build 0)  -->
<!DOCTYPE svg PUBLIC "-//W3C//DTD SVG 1.1//EN" "http://www.w3.org/Graphics/SVG/1.1/DTD/svg11.dtd">
<svg version="1.1" xmlns="http://www.w3.org/2000/svg" xmlns:xlink="http://www.w3.org/1999/xlink" x="0px" y="0px"
	 width="800.559px" height="485.722px" viewBox="-431.484 2150.655 800.559 485.722"
	 enable-background="new -431.484 2150.655 800.559 485.722" xml:space="preserve">
<g id="Layer_1">
</g>
<g id="Layer_2">
	<polygon fill="#EE5415" points="369.074,2495.217 -431.484,2636.377 -431.484,2291.814 369.074,2150.655 	"/>
	<g>
		<g>
			<g>
				<path fill="#CE4912" d="M-61.405,2299.043v135.191c0,6.779-3.987,13.465-9.57,18.039c5.583,2.205,9.57,7.482,9.57,14.66v35.494
					c0,11.564-9.57,22.824-21.135,24.863l-20.737,3.656v-66.998l-7.578,1.336v-12.361l7.578-1.336v-165.898l20.737-3.656
					C-70.975,2279.994-61.405,2287.479-61.405,2299.043z M-74.166,2301.293c0-4.785-3.589-7.74-8.375-6.898l-8.375,1.477v153.537
					l8.375-1.477c4.786-0.844,8.375-5.465,8.375-9.852V2301.293z M-82.54,2460.295l-8.375,1.475v54.238l8.375-1.479
					c4.786-0.844,8.375-5.064,8.375-9.852v-37.088C-74.166,2462.805-77.754,2459.451-82.54,2460.295z"/>
				<path fill="#CE4912" d="M-9.562,2269.164l12.761-2.25l-19.142,188.416v60.219l-12.363,2.18v-60.219l-19.143-181.666
					l12.362-2.178l12.762,146.498L-9.562,2269.164z"/>
				<path fill="#CE4912" d="M12.373,2265.297l41.474-7.312v12.361l-14.755,2.604v232.896l-12.761,2.248v-232.895l-13.958,2.459
					V2265.297z"/>
				<path fill="#CE4912" d="M67.404,2255.594l34.295-6.047v12.361l-21.535,3.797v153.537l19.94-3.518v12.363l-19.94,3.518v54.234
					l21.535-3.797v12.76l-34.295,6.049v-66.996l-7.179,1.266v-12.363l7.179-1.266V2255.594z"/>
				<path fill="#CE4912" d="M157.93,2434.242v25.125c0,14.756-6.78,27.914-21.137,30.445c-13.958,2.461-21.137-8.236-21.137-22.193
					v-45.064l12.763-2.25v49.85c0,4.387,3.189,7.812,8.374,6.898c4.387-0.775,8.374-5.066,8.374-9.852v-30.707
					c0-15.953-5.98-30.85-11.964-44.152l-4.386-9.195c0-0.398-0.398-0.729-0.398-1.125c-6.381-13.631-12.763-28.059-12.763-46.006
					v-65.002c0-13.162,5.584-26.109,20.738-28.781c11.564-2.039,19.939,4.859,19.939,16.424v47.455l-12.762,2.25v-47.455
					c0-5.184-2.791-7.086-7.178-6.312c-4.786,0.846-7.976,4.199-7.976,8.984v70.188c0,16.75,6.38,31.178,13.559,45.465
					C149.156,2393.916,157.93,2411.113,157.93,2434.242z"/>
				<path fill="#CE4912" d="M173.082,2236.959l12.761-2.25v245.258l-12.761,2.25V2236.959z"/>
				<path fill="#CE4912" d="M248.847,2223.6l-29.511,237.701l29.112-5.133v12.762l-43.469,7.664l29.511-238.1l-29.511,5.203v-12.361
					L248.847,2223.6z"/>
				<path fill="#CE4912" d="M267.189,2220.367l34.296-6.049v12.363l-21.534,3.797v153.535l19.939-3.516v12.363l-19.939,3.516v54.236
					l21.534-3.797v12.76l-34.296,6.049v-66.998l-7.179,1.266v-12.363l7.179-1.266V2220.367z"/>
			</g>
			<g>
				<polygon fill="#CE4912" points="-182.941,2389.029 -246.653,2400.262 -246.653,2413.006 -182.941,2401.773 				"/>
				<polygon fill="#CE4912" points="-182.941,2349.77 -246.653,2361.004 -246.653,2373.746 -182.941,2362.512 				"/>
				<path fill="#CE4912" d="M-151.258,2294.246l-225.229,39.715c-7.92,1.396-9.987,3.828-9.987,11.748v235.561l235.216-41.475
					c7.922-1.396,9.987-4.172,9.987-11.748v-225.574C-141.271,2294.553-143.335,2292.85-151.258,2294.246z M-369.599,2349.965
					l211.453-37.285v211.109l-211.453,37.285V2349.965z"/>
				<polygon fill="#CE4912" points="-182.941,2480.98 -347.214,2509.947 -347.214,2522.689 -182.941,2493.723 				"/>
				<polygon fill="#CE4912" points="-182.941,2441.377 -347.214,2470.342 -347.214,2483.086 -182.941,2454.119 				"/>
				<path fill="#CE4912" d="M-308.815,2438.086c21.208-3.738,38.4-23.963,38.4-45.17s-17.192-35.365-38.4-31.627
					c-21.207,3.738-38.399,23.963-38.399,45.168C-347.214,2427.666-330.022,2441.826-308.815,2438.086z"/>
			</g>
		</g>
		<g>
			<g>
				<path fill="#FCF8EB" d="M-52.849,2290.486v135.191c0,6.781-3.987,13.467-9.57,18.041c5.583,2.205,9.57,7.482,9.57,14.66v35.494
					c0,11.564-9.57,22.824-21.135,24.861l-20.737,3.658v-66.998l-7.578,1.336v-12.363l7.578-1.334v-165.898l20.737-3.658
					C-62.419,2271.439-52.849,2278.922-52.849,2290.486z M-65.61,2292.738c0-4.785-3.589-7.742-8.375-6.898l-8.375,1.477v153.535
					l8.375-1.477c4.786-0.844,8.375-5.465,8.375-9.85V2292.738z M-73.984,2451.738l-8.375,1.477v54.236l8.375-1.477
					c4.786-0.844,8.375-5.066,8.375-9.852v-37.088C-65.61,2454.25-69.199,2450.895-73.984,2451.738z"/>
				<path fill="#FCF8EB" d="M-1.006,2260.609l12.761-2.25l-19.142,188.414v60.219l-12.363,2.18v-60.217l-19.143-181.666l12.362-2.18
					l12.762,146.5L-1.006,2260.609z"/>
				<path fill="#FCF8EB" d="M20.928,2256.74l41.474-7.312v12.361l-14.755,2.605v232.895l-12.761,2.248v-232.895l-13.958,2.461
					V2256.74z"/>
				<path fill="#FCF8EB" d="M75.959,2247.039l34.296-6.049v12.361l-21.535,3.799v153.537l19.94-3.518v12.363l-19.94,3.516v54.236
					l21.535-3.799v12.762l-34.296,6.049v-66.998l-7.179,1.266v-12.363l7.179-1.266V2247.039z"/>
				<path fill="#FCF8EB" d="M166.485,2425.688v25.123c0,14.756-6.78,27.916-21.137,30.447c-13.958,2.461-21.137-8.236-21.137-22.195
					v-45.064l12.763-2.25v49.852c0,4.385,3.189,7.811,8.374,6.896c4.387-0.773,8.374-5.064,8.374-9.852v-30.707
					c0-15.951-5.98-30.848-11.964-44.15l-4.386-9.197c0-0.398-0.398-0.727-0.398-1.125c-6.381-13.631-12.763-28.059-12.763-46.004
					v-65.004c0-13.16,5.584-26.109,20.738-28.779c11.564-2.039,19.939,4.857,19.939,16.424v47.455l-12.762,2.25v-47.457
					c0-5.184-2.791-7.084-7.178-6.311c-4.786,0.844-7.976,4.199-7.976,8.984v70.188c0,16.748,6.38,31.176,13.559,45.463
					C157.711,2385.361,166.485,2402.557,166.485,2425.688z"/>
				<path fill="#FCF8EB" d="M181.638,2228.404l12.761-2.25v245.258l-12.761,2.25V2228.404z"/>
				<path fill="#FCF8EB" d="M257.402,2215.045l-29.511,237.701l29.112-5.135v12.762l-43.469,7.666l29.511-238.102l-29.511,5.203
					v-12.361L257.402,2215.045z"/>
				<path fill="#FCF8EB" d="M275.745,2211.811l34.296-6.049v12.363l-21.534,3.797v153.537l19.939-3.516v12.363l-19.939,3.514v54.238
					l21.534-3.799v12.762l-34.296,6.047v-66.996l-7.179,1.266v-12.363l7.179-1.266V2211.811z"/>
			</g>
			<g>
				<polygon fill="#FCF8EB" points="-174.386,2380.475 -238.097,2391.707 -238.097,2404.451 -174.386,2393.217 				"/>
				<polygon fill="#FCF8EB" points="-174.386,2341.213 -238.097,2352.447 -238.097,2365.189 -174.386,2353.957 				"/>
				<path fill="#FCF8EB" d="M-142.702,2285.691l-225.229,39.713c-7.92,1.396-9.987,3.828-9.987,11.748v235.561l235.216-41.475
					c7.922-1.396,9.987-4.17,9.987-11.746v-225.574C-132.715,2285.996-134.78,2284.295-142.702,2285.691z M-361.043,2341.41
					l211.453-37.285v211.109l-211.453,37.285"/>
				<polygon fill="#FCF8EB" points="-174.386,2472.426 -338.658,2501.393 -338.658,2514.135 -174.386,2485.168 				"/>
				<polygon fill="#FCF8EB" points="-174.386,2432.822 -338.658,2461.787 -338.658,2474.529 -174.386,2445.562 				"/>
				<path fill="#FCF8EB" d="M-300.259,2429.531c21.207-3.74,38.399-23.963,38.399-45.17s-17.192-35.367-38.399-31.627
					c-21.207,3.738-38.399,23.963-38.399,45.168C-338.658,2419.109-321.466,2433.27-300.259,2429.531z"/>
			</g>
		</g>
	</g>
</g>
<g id="Layer_3">
</g>
</svg>
